<svg xmlns="http://www.w3.org/2000/svg" width="1472" height="1472" preserveAspectRatio="none" style="display: block;" version="1.1" viewBox="0 0 2048 2048"><path fill="rgb(0,0,0)" d="M0 0h2048v2048h-2048z"/><path fill="rgb(254,254,254)" d="M0 0h2048v969.219c-8.68-36.208-18.3-58.011-49.17-82.219-19.01-14.905-54.14-27.728-78.25-24.204l-2.56-.587c-16.13 2.012-29.27 4.039-44.21 11.064-52.76 24.815-78.65 75.882-71.1 132.867.21 1.63.46 3.26.76 4.88 4 15.44 7.41 24.94 15.35 38.92-20.53 1.06-44.49.54-65.36.55h-106.83l-309.8-.16c-4.08-21.68-14.99-25.92-34.33-28.98l.22-10.25c-.28-1.42-.74-3.08-1.1-4.52-5.95-2.28-48.22-.91-58.72-1.43 9.53-35.8 20.53-71.386 29.77-107.259l42.29-.119c1.14-42.217.52-90.558.06-133.017-41.61-1.334-90.76-.341-132.79-.029-.74 24.648-.16 52.319-.18 77.199l-104.75.07-2.35-.015c-21.87-.305-177.602-2.357-185.364 2.102-3.26 1.872-5.193 4.03-6.658 7.457-3.779 8.839-5.925 18.993-8.52 28.244l-14.124 49.962-47.817 167.575-13.551 7.22c-12.106-8.9-17.094-7.22-28.901.26-14.643-10.7-14.933-4.98-29.838-1.15-12.59 3.25-14.737-1.39-16.416 14.72-15.546.2-31.095.1-46.637-.31-14.512-53.12-29.37-106.15-44.573-159.079-6.808-23.389-16.682-59.83-25.325-81.791 6.787-12.923 28.488-44.044 37.239-57.337l74.706-113.423c9.237-13.984 30.4-44.395 36.511-58.302a70.82 70.82 0 0 0 5.728-31.556c-.91-20.166-10.049-39.076-25.285-52.319a73.63 73.63 0 0 0-38.187-17.623c-14.068-2.05-49.74 1.441-66.139 2.302l-169.569 10.161c1.13-17.409.187-30.691-10.878-45.621-9.113-12.51-22.955-20.739-38.299-22.769-20.244-2.69-33.306 3.275-48.966 15.151a55.44 55.44 0 0 0-20.012-9.742c-13.066-3.314-26.92-1.127-38.329 6.052-15.876 9.99-20.224 22.276-24.297 39.058-37.206 16.349-56.108 36.769-62.955 77.654-3.3 2.595-8.968 5.82-12.701 8.098-2.256-3.177-4.821-6.276-7.26-9.328-52.337 33.958-102.6995 74.308-154.7185 108.816-31.7268 21.046-31.2727 26.896-43.8145 59.912z"/><path fill="rgb(254,254,254)" d="M1077.65 23.3007c157.09 2.002 317.86.3162 475.2.2994l229.69-.0114c44.54.0041 90.93.6192 135.33-.3745l-.22 533.3438.02 195.942c0 35.57-.75 74.431.35 109.709-16.13 2.012-29.27 4.039-44.21 11.064-52.76 24.815-78.65 75.882-71.1 132.867.21 1.63.46 3.26.76 4.88 4 15.44 7.41 24.94 15.35 38.92-20.53 1.06-44.49.54-65.36.55h-106.83l-309.8-.16c-4.08-21.68-14.99-25.92-34.33-28.98l.22-10.25c-.28-1.42-.74-3.08-1.1-4.52-5.95-2.28-48.22-.91-58.72-1.43 9.53-35.8 20.53-71.386 29.77-107.259l42.29-.119c1.14-42.217.52-90.558.06-133.017-41.61-1.334-90.76-.341-132.79-.029-.74 24.648-.16 52.319-.18 77.199l-104.75.07c1.48-70.303.39-144.137.4-214.654v-388.209l-.01-145.1254c-.01-21.4151-.93-49.9265-.04-70.7059"/><path fill="rgb(30,142,252)" d="M1803.47 1011.02c4 15.44 7.41 24.94 15.35 38.92-20.53 1.06-44.49.54-65.36.55h-106.83l-309.8-.16c-4.08-21.68-14.99-25.92-34.33-28.98l.22-10.25z"/><path fill="rgb(0,0,0)" d="M1182.26 139.013c42.16-1.073 90.32-.299 132.77.06.38 12.902 1.05 129.654-1.19 133.265-42.01.305-89.88 1.166-131.76-.209-.21-44.372-.15-88.745.18-133.116"/><path fill="rgb(254,254,254)" d="m1186.33 142.851 124.88-.045-.06 125.149-124.93-.015c-.03-41.522-.41-83.611.11-125.089"/><path fill="rgb(0,0,0)" d="M1283.02 179.681c1.19.709.5.174 1.71 1.987-1.91 5.421-41.82 43.576-48.49 50.021l-21.64-21.566c-1.08-1.274-1.38-2.16-2.17-3.673l.71.645.35-1.403c5.3 1.808 17.97 15.515 22.64 20.238 15.27-14.533 31.2-32.6 46.89-46.249"/><path fill="rgb(0,0,0)" d="M1184.83 348.531c29.68-.874 59.86.272 89.59-.199 13.37-.212 27.26-.13 40.62.323.18 6.817.17 13.85.15 20.681-.14 36.735.4 73.553-.3 110.258-.03 1.648-.45 1.355-1.94 2.358l-130.73-.082c-.89-27.321.24-57.003-.16-84.625-.15-10.334-.64-39.523.4-47.615z"/><path fill="rgb(254,254,254)" d="M1186.15 352.779c12.59-.731 30.66-.177 43.83-.164l81.16-.031-.03 125.321-124.88-.035z"/><path fill="rgb(0,0,0)" d="M1282.22 389.675c2.45 1.173 1.69.241 2.74 2.444-9.4 11.346-37.83 40.206-49.21 48.964l-20.13-20.136c-1.33-1.651-1.61-2.188-2.72-4.002l.98-.978c4.97 1.677 17.89 15.381 22.35 19.84 15.21-14.634 31.03-31.08 45.99-46.132"/><path fill="rgb(0,0,0)" d="M1182.14 554.951c44.3-.531 88.61-.537 132.92-.018.96 42.372.52 90.542-.07 133.058l-132.91-.034z"/><path fill="rgb(254,254,254)" d="M1186.17 559.166c41.65.18 83.31.15 124.97-.091l-.09 124.879-124.72-.066c-.89-40.605-.15-83.93-.16-124.722"/><path fill="rgb(0,0,0)" d="m1283.83 596.887.89 1.587c-1.02 4.722-42.11 44.719-48.49 49.895-6.57-4.752-16.84-15.978-22.54-22.066l-1.17-2.415.92-.94c4.85 1.335 18.38 16.024 22.74 20.429 10.51-10.564 37.43-38.816 47.65-46.49"/><path fill="rgb(49,47,48)" d="M1377.59 162.201c33.35.238 421.89-1.205 426.94 1.179l1.18 3.532c-13.54 1.28-37.28.599-51.63.595l-91.99-.042-270.27.12c-3.64-.029-10.66.423-13.41-1.231z"/><path fill="rgb(0,0,0)" d="M1377.61 788.216c34.36-.873 71.89-.158 106.44-.16l200.13.004c32.99.003 85.08-.443 119.38.506 1.25.034 1.55 2.393 2.21 4.265-78.83 1.444-161.76.165-240.87.165l-131-.104c-9.95-.021-50.05 1.451-55.42-1.067z"/><path fill="rgb(0,0,0)" d="M1376.83 579.471c6.83-1.296 37.41-.824 46.06-.819l99.42.06 185.88-.009c30.66-.015 61.64-.139 92.31.049 3.56.022 3.61.872 5.77 3.135-7.46 1.29-25.34.93-33.37.92l-55.72-.105-201.74-.064-95.82.01c-12.63.005-25.59.144-38.23.102-3-.01-3.02-1.106-4.56-3.279"/><path fill="rgb(0,0,0)" d="M1377.22 373.436c8.97-1.086 36.85-.443 47.53-.445l95.34-.007 184.27.022c31.21.006 62.47-.041 93.67.077 4.37.016 5.47-.209 8.42 2.068-6.62 1.975-74.23 1.236-86.03 1.237l-222.93-.004-79.24.008c-12.17.006-25.13.223-37.32-.265-2.53-.101-1.77-.206-3.71-2.691"/><path fill="rgb(0,0,0)" d="m1378.08 237.431 203.55.109c3.08 1.693 1.76.439 3.12 4.851-12.54.954-36.64.217-50.37.219l-99.13.015c-17.06.002-38.01.004-55.26.006-.57-.401-1.14-.801-1.71-1.201z"/><path fill="rgb(0,0,0)" d="M1378.7 863.461c19.5-.511 202.92-.532 205.62.944l.07 3.42c-53.64-.517-148.49.174-204.74-.099-.48-.428-.96-.857-1.44-1.285z"/><path fill="rgb(0,0,0)" d="M1376.93 448.399c10.07-1.014 28.7-.515 39.47-.521l73.47-.007 61.62.023c9.58.004 19.67-.16 29.24.259 3.41.148 2.85.448 4.72 2.775-4.38 1.37-197.31 1.975-206.48.496z"/><path fill="rgb(0,0,0)" d="M1377.64 654.406c15.95-.735 201.91-1.403 205.96.753l.45 2.362-149.39.027c-7.12 0-51.96.428-56.02-.701z"/><path fill="rgb(30,142,252)" d="m1074.63 20.1373 542.56-.1783 193.93.0115c36.23.0042 73.89-.4833 110 .2634l.03 583.6221v175.881l.05 51.76c0 7.953.33 23.769-.62 31.299l-2.56-.587c-1.1-35.278-.35-74.139-.35-109.709l-.02-195.942.22-533.3438c-44.4.9937-90.79.3786-135.33.3745l-229.69.0114c-157.34.0168-318.11 1.7026-475.2-.2994-.89 20.7794.03 49.2908.04 70.7059l.01 145.1254v388.209c-.01 70.517 1.08 144.351-.4 214.654l-2.35-.015-.34-220.446.01-373.175.01-151.3581c0-24.5978.65-52.5059 0-76.8636"/><path fill="rgb(254,254,254)" d="M0 802.002c6.4242 12.913 4.581 24.48 16.5609 37.617 16.5342 18.132 37.9633 28.665 57.7067 42.833 29.7384 20.895 62.1124 40.477 91.5324 61.407-36.002.238-55.65.614-44.135 44.961 2.789 10.74 5.638 23 8.324 33.92l23.593 95.7-91.4384-.03c-.2242 18.76-.222 37.53.0066 56.29 33.6082.28 67.2178.34 100.8268.18-2.098 11.97-2.68 25.3-3.679 37.54l-4.535 53.59-15.69 184.33-48.5361 573.21c-10.4054-.01-82.1587-.95-85.771 1.35l-.1958 1.55c3.5031 2.67 125.6949 1.48 139.1399 1.48l256.395.01 1117.125-.02 331.21.02 97.14.01c9.82 0 44.26 1.23 51.22-1.8l.23-.9c-5.12-2.88-77.81-1.4-89.97-1.9 2.93-29.62 3.42-66.15 4.96-96.68l11.61-241.07c-17.88-1.15-39.89-.58-58.09-.56.97-15.19 3.77-30.86 5.9-46 14.22 1.26 28.13 3.4 39.82-6.74 17.78-15.41 8.84-38.44 18.05-57.28 4.41-9.03 12.72-18.62 19.87-25.36 23.71-22.36 37.81-41.72 38.85-75.48.09-3.07-.02-5.79-.19-8.94-124.25 57.15-119.29 212.67-129 219.99l-1.98-.08c-2.06-6.89.03-38.04.46-46.93 4.1-84.88 9.81-171.83 36.03-253.11 5.01.54 12.8.57 16.76-2.76 22.57-18.96-4.12-46.14-24.98-26.81-8.66 8.03-3.13 20.71 5.04 28-27.06 74.17-32.89 177.26-36.98 256.24-.46 8.79-.56 33.91-1.6 44.07-.55.33-1.09.66-1.63 1l-2.99-.16c-1.89-2.93-3.33-37.94-3.48-44.4-2.41-110.3-41.85-200.59-142.98-257.06.84 28.78 7.75 48.64 28.99 69.41 12.57 12.11 27.89 21.54 36.98 36.82 10.85 18.23.75 44.32 21.17 57.1 12.96 8.1 26.09 5.88 40.34 3.99 12.82 53.23 8.48 84.27 14.33 134.56-18.79-.01-39.17-.41-57.83.18-.21 12.81 1.05 27.45 1.75 40.47l2.83 59.24c3.77 77.89 9.22 161.15 11.11 238.49-18.19.05-37.33.4-55.43-.1-5.47-24.67-9.91-54.01-14.34-79.13l-24.65-139.35-76.65-432.6-23.17-130.78c-3.44-19.41-7.59-47.97-11.98-66.61 35.1-.22 71.72.47 106.6-.22.24-18.68.3-37.36.17-56.04-131.86-2.12-266.17.57-398.39-.42l-.15-29.34c21.89.61 34.57-12.27 34.74-34.25.01-1.44-.03-2.88-.1-4.32l309.8.16h106.83c20.87-.01 44.83.51 65.36-.55-7.94-13.98-11.35-23.48-15.35-38.92-.3-1.62-.55-3.25-.76-4.88-7.55-56.985 18.34-108.052 71.1-132.867 14.94-7.025 28.08-9.052 44.21-11.064l2.56.587c24.11-3.524 59.24 9.299 78.25 24.204 30.87 24.208 40.49 46.011 49.17 82.219v1078.781h-2048z"/><path fill="rgb(0,0,0)" d="M1920.58 862.796c24.11-3.524 59.24 9.299 78.25 24.204 30.87 24.208 40.49 46.011 49.17 82.219v33.341c-9.9 40.89-22.2 65.31-58.82 89.01-55.97 36.24-137.82 16.19-170.36-41.63-7.94-13.98-11.35-23.48-15.35-38.92-.3-1.62-.55-3.25-.76-4.88-7.55-56.985 18.34-108.052 71.1-132.867 14.94-7.025 28.08-9.052 44.21-11.064z"/><path fill="rgb(254,254,254)" d="M1920.62 866.445c.2-.022.4-.043.59-.064 30.31-.937 59.84 9.67 82.63 29.676 23.96 21.046 38.48 50.824 40.31 82.666 2.04 32.137-8.99 63.727-30.6 87.607-21.8 24.22-51.33 37.56-83.74 39.12-31.6.27-58.38-7.49-82.84-28.39-24.39-20.88-39.36-50.7-41.5-82.743-2.25-31.99 8.41-63.547 29.59-87.624 22.59-25.785 51.85-38.056 85.56-40.248"/><path fill="rgb(0,0,0)" d="M1980.67 945.82c1.33 1.923.85.861.92 3.425-7.57 9.69-69.4 71.535-77.78 77.015-11.11-11.72-23.64-23.79-35.13-35.266l-.75-2.041.83-1.739c4.29.808 30.91 28.946 36.03 34.126 22.64-22.928 52.33-54.263 75.88-75.52"/><path fill="rgb(254,254,254)" d="M1302.14 1174.89c39.31-.63 79.9-.08 119.36-.1l169.17.14c1.17 12.54 4.34 28.25 6.57 40.85l11.39 64.25 36.18 204.05 66.85 377.34c9.53 53.26 18.33 109.22 28.79 161.98-52.16 1.72-113.1.18-165.95.18l-136.21-.13c-.79-8.83-2.03-15.75-3.76-24.42 40.93-44.4 88.12-88.27 130.46-132.71-19.31-29.96-45.94-26.97-71.05-7.28-24.87 19.5-41.54 17.38-69.07 4.78 4.07-5.07 6.19-7.69 9.55-13.3-6.69-7.51-25.49-22.56-27.68-30.03-2.47-8.42-5.32-29.17-6.84-38.68l-13.69-85.66-58.73-367.03-16.27-102.19c-2-12.6-5.83-41.47-9.07-52.04"/><path fill="rgb(30,142,252)" d="M674.855 550.411c14.681-1.141 27.855-.281 41.597 5.726 31.722 13.806 49.397 52.398 37.424 85.163-7.244 19.825-24.072 41.568-35.895 59.705l-95.025 144.436c-9.925 15.126-36.045 52.437-42.765 67.432l-.631 1.425c8.949-7.372 18.186-23.158 24.787-33.403 14.631 42.92 26.87 87.62 39.238 131.315a11578 11578 0 0 1 49.772 182.02c-12.703 2.73-31.081 8.81-44.059 12.7a5298 5298 0 0 1-90.757 26.82c-10.63-35.9-63.477-270.057-72.243-280.72-3.632-4.416-10.91-7.54-16.463-8.338-11.062-1.588-22.983-.817-34.157-.792l-57.834.074-205.387-.008c-19.564-14.975-52.168-35.445-73.5022-49.823-22.7214-15.113-60.8224-37.435-78.4065-56.027-12.229-14.874-16.3052-34.215-14.4445-52.401 4.2849-41.876 45.2103-58.427 76.1446-81.725 36.7976-27.714 78.4616-52.999 115.1256-81.666 5.642 5.973 18.179 24.537 23.605 32.146l46.458 65.385c-26.004 22.634-55.794 43.826-81.214 66.566 34.491 23.636 72.848 44.258 107.999 67.087 2.362 1.533 5.673 3.201 8.415 2.461-1.347-3.268-2.25-3.032-5.691-5.515 20.966-6.996 176.061-57.937 181.913-56.83 1.355 2.578.528 3.005-.266 6.718 5.965-3.999 66.669-98.016 73.446-109.624-20.221-2.723-41.373-2.529-61.757-2.899a4036 4036 0 0 1-77.33-1.902c-1.097-39.885-.965-79.984-1.874-119.99 45.299-1.869 91.395-4.784 136.632-7.908 41.369-2.857 86.137-3.842 127.145-7.608"/><path fill="rgb(254,254,254)" d="M143.373 948.416c52.167-1.778 114.179-.189 166.896-.183l100.207.016c17.058.002 34.086-.136 51.175.071 9.633-.094 20.674 1.488 24.121 12.341 7.817 24.609 13.467 51.419 19.684 76.469l59.909 241.55 17.432 70.65c3.334 13.62 6.461 27.37 10.396 40.81 3.308 11.3 10.57 18.42 22.603 19.09 18.492 1.03 37.15.62 55.689.62l108.782-.08c11.559-.03 29.562-2.54 39.112 3.7 4.63 2.97 7.865 7.68 8.967 13.06 2.74 13.74-7.6 21.54-19.978 23.36-38.715.72-79.455.11-118.386.11h-224.945l-137.957.02c-23.886.01-47.975.27-71.688-.29-14.127-.33-18.351-8.45-21.462-20.73-8.311-32.81-16.403-66.64-24.425-99.41l-47.637-194.28-26.265-106.7c-4.637-18.83-9.964-38.2-13.235-57.327-2.537-14.837 7.318-21.601 21.005-22.867"/><path fill="rgb(254,254,254)" d="m301.236 1453.98 246.214-.01c3.367 14.7 6.319 33.13 9.123 48.17l17.266 92.79 52.583 282.15c8.81 47.26 17.464 99.91 27.446 146.41-16.907.28-34.413.07-51.368.09l-352.783-.09c.075-24.73 6.21-75.67 8.586-101.93l17.966-197.55 16.151-178.71c2.283-25.31 4.729-68.05 8.816-91.32"/><path fill="rgb(254,254,254)" d="m692.407 1174.77 607.603.08c-.26 12.54 6.41 47.6 8.71 62.08l19.72 123.54 73.19 457.54-177.77-172.83c-32.79-32.06-68.41-68.22-102.14-98.76 6.94 24.43 13.28 52.39 19.48 77.3l33.56 135.52c7.57 27.07 13.77 56.76 21.07 84.21 2.66 9.99 11.93 45.5 12.34 54.62 11.64 11.32 27.01 24.24 39.33 35.2l71.24 63.15c6.26-6.75 16.2-19.97 22.7-27.7 20.25 17.6 41.78 36.16 61.31 54.42-38.12 1.67-86.94.64-125.56.24.37-1.27.71-2.55.99-3.85 8.81-40.68-29.69-50.6-59.86-54.19-14.02-1.66-23.31-14.24-30.66-25.26 9.01-2.07 19.32-3.65 28.51-5.27-4.44-20.01-7.89-31.02-14.69-50.21-2.19-6.19-6.25-24.71-7.99-31.69l-70.07-281.87c-14.68-60.47-29.82-120.84-45.43-181.08-6.18-24.35-16.37-70.36-24.42-91.41-9.74-24.92-24.63-47.51-43.69-66.3-38.201-38.11-61.371-37.17-111.398-37.19l-53.747-.01-146.761.05z"/><path fill="rgb(254,254,254)" d="m551.717 1454.01 156.735-.07c11.099 10.03 45.363 36.67 50.852 47.73 5.675 11.42 18.566 94.14 21.926 112.12l49.439 265.12c8.313 44.8 17.142 100.65 27.336 144.43-64.579 1.74-135.578.26-200.779.16-1.886-18.58-8.146-46.66-11.695-65.71l-22.473-120.77z"/><path fill="rgb(254,254,254)" d="M165.349 1174.53c4.129 3.13 14.592 51.31 16.597 59.49l33.089 135c3.88 15.83 13.679 67.29 24.211 79.2 7.411 8.38 43.722 5.88 56.925 5.74.099 14.23-3.744 47.27-5.096 62.32l-11.374 125.1-34.748 382.2-16.703-.02-133.7099-.02 48.7319-575.21 15.006-176.13c2.362-27.58 7.342-70.77 7.071-97.67"/><path fill="rgb(254,254,254)" d="M895.361 856.024c15.579-.81 35.701-.194 51.732-.195l98.467-.014c69.07-.007 145.21-1.545 213.73.285-1.58 8.851-5.96 22.519-8.53 31.509l-15.25 53.117c-5.64 19.757-12.76 45.584-19.14 64.804-3.67 11.04-21.63 83.96-26.35 87.58-46.52-.65-94.55-.1-141.19-.12l-224.022-.08c18.217-71.43 43.807-143.15 62.593-214.561 1.67-6.348 4.59-17.133 7.96-22.325"/><path fill="rgb(0,0,0)" d="M939.508 983.906c12.037-.351 26.462-.56 38.313.464-3.725 8.623-8.485 27.47-11.835 37.68-12.543.26-25.09.26-37.633.02 2.017-9.22 7.526-29.932 11.155-38.164"/><path fill="rgb(254,254,254)" d="M941.777 988.154c9.905-.217 20.171-.112 30.108-.148-2.52 9.765-5.886 20.304-8.781 30.034-3.259.68-25.134.39-29.909.38 2.731-10.04 5.736-20.239 8.582-30.266"/><path fill="rgb(0,0,0)" d="M962.451 995.709c1.054.271.339.024 1.918 1.215-1.432 4.326-10.255 10.886-14.515 12.956-2.857 1.38-3.38.48-5.998-.68-1.553-2.84-2.081-3.22-2.195-6.47 2.514-.55 3.871 1.48 6.14 2.44 2.393 1.01 11.927-7.357 14.65-9.461"/><path fill="rgb(0,0,0)" d="M970.837 874.285c11.787-.249 25.737-.35 37.393.347-2.36 9.441-7.27 29.957-11.477 37.861-10.283.56-26.677.479-36.847-.09 1.928-9.617 7.428-29.174 10.931-38.118"/><path fill="rgb(254,254,254)" d="M973.905 877.569c9.8.195 19.885.106 29.715.141-2.97 10.454-5.742 20.105-9.251 30.417-9.616.105-19.625-.091-29.276-.145 2.799-10.883 5.08-19.773 8.812-30.413"/><path fill="rgb(0,0,0)" d="m995.138 884.825 1.311 1.274c-1.442 5.046-12.931 13.358-18 15.027l-2.59-2.068c-1.44-2.357-2.689-3.69-2.401-6.362l1.569-.762c1.639 1.281 2.927 2.402 4.483 3.785 2.805-1.012 12.055-8.486 15.628-10.894"/><path fill="rgb(0,0,0)" d="M954.956 929.176c12.577.078 25.152.324 37.723.737-2.697 9.387-7.737 29.71-11.319 37.571-12.097.48-25.584.782-37.606-.489 3.542-12.523 6.995-25.536 11.202-37.819"/><path fill="rgb(254,254,254)" d="M982.346 933.476c.955-.069 2.416.19 3.432.314 1.661 4.417-4.949 24.101-6.492 29.764-8.16.258-16.998.057-25.212.027-1.204-.06-2.522-.501-3.745-.813-1.295-4.817 5.487-23.558 7.332-29.243 8.185.076 16.49-.025 24.685-.049"/><path fill="rgb(0,0,0)" d="m978.727 940.667 1.559 1.446c-1.159 4.635-12.946 12.497-17.332 14.383l-2.707-1.291c-1.567-2.805-2.81-4.971-1.995-7.956 1.409.201 4.401 2.687 5.811 3.702 2.711-.999 11.331-7.892 14.664-10.284"/><path fill="rgb(0,0,0)" d="M923.631 1039.23c10.811-.41 26.434-.27 37.043.53-1.939 10.41-7.115 26.77-10.202 37.41-11.705.48-25.828.13-37.717.14 1.794-9.25 7.396-29.4 10.876-38.08"/><path fill="rgb(254,254,254)" d="M925.799 1043.97c9.738-.27 20.169-.1 29.964-.13-2.782 10.27-5.255 19.57-8.791 29.65-9.788 0-19.577-.08-29.364-.24z"/><path fill="rgb(0,0,0)" d="m947.451 1050.85 1.445 1c-1.013 4.84-13.045 13.82-18.184 14.43l-3.19-2.53c-1.03-2.52-.996-2.43-1.221-5.15l1.767-.84c1.162.95 1.804 1.52 2.91 2.59l1.024 1c1.898-.56 12.646-8.61 15.449-10.5"/><path fill="rgb(0,0,0)" d="M1019.85 880.393c27.91-1.928 84.07.118 114.53.164 1.11.002 1.35 1.767 1.99 3.373-7.36 2.536-99.32.783-113.81.958-1.97.024-2.02-2.192-2.71-4.495"/><path fill="rgb(0,0,0)" d="M972.041 1046.39c10.381-.9 111.649-1.11 115.149.35l.94 2.86c-27.69 1.14-84.51.44-114.619-.4-1.028-.03-1.096-1.5-1.47-2.81"/><path fill="rgb(0,0,0)" d="M1003.65 936.326c9.24-.852 112.38-1.129 115.44.299l-.03 2.905c-31.59 1.283-79.78.131-112.77-.32-1.63-.022-1.6-1.001-2.64-2.884"/><path fill="rgb(0,0,0)" d="M988.281 990.405c13.149-.201 109.239-1.343 115.489.918l1.01 2.26c-10.48 1.382-106.919 1.884-115.409.061z"/><path fill="rgb(49,47,48)" d="M998.662 955.36c13.208-.158 42.638-1.517 55.768 1.003 1.04.201 1.23 2.002 1.66 3.392-7.53.59-52.66 1.28-56.916-.718z"/><path fill="rgb(0,0,0)" d="M1014.12 900.402c7.51-.093 52.88-1.259 56.67.566l.65 3.74c-8.2.342-51.87 1.368-56.68-1.182z"/><path fill="rgb(0,0,0)" d="M983.225 1010.48c9.459-.26 49.405-.92 56.055 1.04l.88 2.07c-6.81.96-52.305 1.22-56.706-.46z"/><path fill="rgb(0,0,0)" d="M966.035 1066.51c.958-.15 3.755-.62 5.056-.63 16.888-.02 35.039-1.22 51.789.5.81.71 1.61 1.43 2.42 2.14-8.24 1.22-54.389 2.87-59.265-2.01"/><path fill="rgb(254,254,254)" d="M828.344 1411.53c12.404-.34 24.51-.14 36.913.02 10.83 43.17 25.37 91.73 37.419 134.8 23.72 85.67 47.912 171.21 72.575 256.62l30.429 105.79c4.61 16.05 13.14 42.87 16.22 58.45 8.86-1.18 18.09-3.03 26.91-4.65.63 20.24 2.39 40.37 3.28 60.62-23.47 1.13-52.324.43-76.198.43-38.206.14-76.412.04-114.616-.29-3.94-28.43-11.143-62.25-16.507-90.87-9.847-49.11-18.585-99.84-27.823-149.2l-51.784-278.35c12.991 9.52 39.182 34.28 52.112 45.81 36.282 32.52 72.751 64.83 109.404 96.93-6.46-17.08-16.595-58.31-21.888-77.32l-43.194-154.58c-7.718.17-30.656 1.83-35.594-2.25l-.081-1.44z"/><path fill="rgb(254,254,254)" d="m1788.88 1689.69 130.44.06c-4 105.78-11.55 212.62-15.29 318.33l-.22 15.23c-29.66 1.47-69.29.28-99.69.09-.04-29.82-2.54-63.64-4.11-93.69l-7.17-149.19c-1.38-28.95-3.68-62.35-3.96-90.83"/><path fill="rgb(254,254,254)" d="m678.209 1122.15 668.731.07.06 48.43c-22.69.83-49.78.2-72.78.2l-135.68-.01-446.89.09c-4.795-15.53-9.156-32.98-13.441-48.78"/><path fill="rgb(254,254,254)" d="M1528.54 1848.26c14.48-.84 23.22 6.72 31.34 17.53-8.8 10.85-34.72 35.49-45.4 46.49-35.39 36.45-72.4 72.13-107.48 108.91l-21.85-19.35c-13.23-10.91-28.26-24.81-41.42-36.29l78.16-98.34c69.23 29.5 57.96-11.84 106.65-18.95"/><path fill="rgb(254,254,254)" d="M1178.27 1941.33c1.29-.19 2.58-.38 3.87-.58 5.53 4.16 8.08 11.43 13.14 16.55 21.06 21.34 59.93 7.12 76.04 36.16 3.76 6.78 4.87 17.69 2.53 24.96-4.04 3.08-109.33 1.56-123.35 1.6l-94.37.8-3.37-58.55z"/><path fill="rgb(254,254,254)" d="M393.204 675.582c4.84-.441 10.787-.622 15.722-.896l.148 14.662c17.419 4.646 18.047 5.046 35.403 1.019 5.726 25.463-1.813 41.709-23.16 56.423-10.629 7.326-18.867 8.219-31.198 10.316 10.708 6.501 22.174 13.174 32.472 20.216 3.149 6.306 7.257 18.008 9.924 24.928-20.235 8.109-53.256 17.515-74.982 24.45-8.403 2.999-18.588 5.924-27.217 8.648-8.918-21.067-17.731-45.789-26.206-67.398q2.0835.054 4.167.075c22.647.2 44.992-9.714 61.321-25.383 13.393-12.853 13.587-26.178 13.479-43.178 4.221-.602 6.395-.229 9.491-2.549l-.357-1.977c-20.615-2.902-20.038 5.723-33.479-16.45z"/><path fill="rgb(254,254,254)" d="m391.853 583.45 14.855-.38 2.133 87.693c-16.799.181-33.92 2.46-50.594 4.3-8.405.928-37.895 9.117-43.641 4.077.155-2.592.134-2.52 1.966-4.955 12.366-16.435 32.075-7.515 46.485-10.156l.661-1.308-1.073-1.974c-2.884-1.237-15.179-.754-19.173-.887-20.53-.682-41.039-1.691-61.581-1.978-6.453-.09-13.374.183-19.628-1.247-.97-2.886-.905-1.375.473-4.667 12.012-10.694 44.827-6.638 59.143-9.766l-.048-.797c-13.203-4.893-38.011-1.318-51.513 2.258-4.772 1.994-18.975 7.442-21.136-.219 4.669-9.493 30.695-15.577 40.643-17.052 8.943-1.325 22.976-.142 30.636-4.834-6.995-2.828-35.189 1.191-43.487 2.965-6.87 1.47-19.068 9.216-25.771 6.799-1.423-3.358-1.268-1.639-.207-5.351 10.166-8.795 35.885-15.942 49.361-17.965 4.736-.712 14.685-.128 18.488-2.086l.489-1.553c-11.936-6.834-49.313 10.078-53.63 6.031 5.918-24.096 104.643-26.151 126.149-26.948"/><path fill="rgb(254,254,254)" d="m1186.06 768.828 125.14-.094-.08 125.05-36.85-.233c3.91-14.003 11.62-30.356 5.04-42.794-8.65-9.416-13.93-8.749-26.1-8.917 7.44-7.671 29.28-26.822 30.75-34.772-3.01.608-31.87 30.233-36.5 34.844l-22.69.001c-2.62-2.75-7.63-9.039-11.57-8.11.74 3.524 3.28 5.426 5.88 8.12l-32.99.028c.14-24.374.13-48.749-.03-73.123"/><path fill="rgb(30,142,252)" d="M1219.68 1009.48c22.58-.83 54.73.42 78.13.48-.02 15.13 1.78 102.73-1.96 107.93-24.08 1.09-52.74.64-76.88.22-.72-11.06-1.83-105.03.71-108.63"/><path fill="rgb(254,254,254)" d="M449.259 691.039c17.244-.096 35.218 1.204 52.53 1.617 14.775.353 29.61.276 44.332 1.087a6306 6306 0 0 0-56.223 85.695c-.921 1.358-3.663 5.357-4.941 5.926-14.356 6.389-32.809 10.881-47.905 16.224-7.329-15.486-11.745-32.27-19.189-47.402 25.662-19.371 35.852-28.764 31.396-63.147"/><path fill="rgb(254,254,254)" d="M260.886 730.783c1.759 1.182 6.187 6.998 7.723 8.901 10.79 13.368 15.395 18.8 30.323 26.911 7.63 15.975 21.241 52.975 27.059 70.274-10.807 3.726-22.647 7.185-33.666 10.823-6.542-3.827-13.245-8.075-19.735-12.047l-80.251-49.584z"/><path fill="rgb(254,254,254)" d="M1982.82 1472.05c3.03 5.22-1.12 21.34-2.77 27.33-6.48 30.03-43.95 49.66-54.5 74.08-13.25 30.69 5.8 67.59-50.33 61.66l-1.6-.83c-.32-5.53 6.64-27.44 8.78-33.92 18.09-54.89 47.7-101.69 100.42-128.32"/><path fill="rgb(254,254,254)" d="M1704.46 1390.47c2.56 1.28 5.08 2.61 7.58 4 55.92 31.17 97.26 91.49 114.41 152.35l-1.85.2c-57.27 5.86-40.13-21.68-53.67-57.69-2.49-6.6-15.39-19.66-21.05-24.15-26.67-21.17-42.12-39.75-45.42-74.71"/><path fill="rgb(254,254,254)" d="M66.1673 1122.28c29.4002.06 58.8007-.03 88.1997-.26 4.121 16.24 8.092 32.51 11.913 48.82-33.423.16-66.8462.09-100.2681-.21-.1017-16.12-.0499-32.23.1554-48.35"/><path fill="rgb(254,254,254)" d="m816.283 1097.69 49.697-174.021c4.049-14.172 18.111-66.667 23.201-75.384 11.958-2.78 35.145-1.905 48.264-1.901l65.095.011 246.58-.072c4.13.032 17.61-.128 18.74 3.301 2.16 6.621-5.21 28.486-7.09 35.21l-15.7 56.01-12.6 44.367c-1.7 5.998-3.01 16.689-7.55 20.389l-2.42-.36c-4.47-5.64 43.31-133.642 38.29-151.389-5.89-2.89-77.99-1.861-91.21-1.865l-148.34-.012-78.044.02c-15.833.008-35.738-.754-50.988 1.534-5.047 8.417-19.303 60.885-23.384 74.845l-49.473 168.317c5.46.4 10.467.29 15.922.24l4.053 1.84c-4.103 1.35-7.168 3.81-10.77 6.26-4.69-3.48-7.197-4.72-12.273-7.34"/><path fill="rgb(254,254,254)" d="M729.952 1108.17c64.477-1.32 131.634.6 196.24-.1 17.643-.2 163.338-1.04 167.028 1.41 1.84 3.22 1.31 4.93 1.03 8.65-32.75.82-67.49.25-100.351.25l-178.019-.01c-24.507 0-58.822.07-84.429-.12-.722-.44-1.443-.89-2.164-1.33-.979-3.27-.103-5.39.665-8.75"/><path fill="rgb(254,254,254)" d="m266.741 598.944 1.656.536c-2.396 2.655-6.739 7.31-7.142 10.723-1.158 9.83-9.372 7.041-14.248 14.415-4.305 6.51 1.611 6.201 2.414 12.128l-2.465 3.066c-9.914 12.197 8.321 12.006 8.5 12.45 5.709 14.153 14.04 10.027 26.624 10.39 6.519.188 12.655.145 19.17.534-6.373 3.927-16.92 9.878-21.227 15.914 7.197-.395 20.85-12.828 28.946-14.491 3.823-.785 9.132-.699 13.076-.738-7.465 6.02-9.593 7.299-13.347 16.405-16.131 6.086-33.45 13.356-48.461 21.95-17.038-21.889-35.657-49.053-51.957-71.933 14.459-9.88 42.481-23.815 58.461-31.349"/><path fill="rgb(254,254,254)" d="M1302.68 1024.87c17.04 2.25 26.53 7.12 30.02 25.33 1.17 15.61-6.24 32.83-24.66 36.1-1.94.35-3.53-1.37-4.83-2.59-2.41-5.56-.87-26.42-.61-33.52z"/><path fill="rgb(30,142,252)" d="M1302.68 1024.87c17.04 2.25 26.53 7.12 30.02 25.33-9.6.44-20.4.09-30.1-.01z"/><path fill="rgb(254,254,254)" d="m1212.64 1033.84 1.06 1.61c1.95 19.09-8.81 49.26-14.2 68.74l-79.53.12c-13.48.03-28.05.45-41.43-.65-2.74-.22-4.77-2.26-6.68-4.12l-5.15-1.01c8.93-2.21 37.79-1.38 48.85-1.36l78.71.02c6.09-16.31 13.59-45.78 18.37-63.35"/><path fill="rgb(254,254,254)" d="M1898.15 1352.59c8-.94 15.24 4.78 16.16 12.78.93 8-4.81 15.23-12.81 16.13-7.98.91-15.18-4.81-16.1-12.79-.92-7.97 4.78-15.18 12.75-16.12"/><path fill="rgb(105,105,106)" d="M835.273 1096.93c31.177.74 62.615.2 93.746.18 6.721-.01 47.597-.97 52.634.03-6.026.85-12.165-.19-17.037 1.46-4.802.69-5.273.59-10.163-.04l-9.821 6.59a348 348 0 0 0-9.251-6.51c-4.858 1.44-88.437 1.32-96.055.13z"/><path fill="rgb(254,254,254)" d="M935.381 1098.64c5.561-1.5 13.556-1.61 19.072-.08l-9.821 6.59a348 348 0 0 0-9.251-6.51"/><path fill="rgb(254,254,254)" d="M981.653 1097.14c5.139.07 49.627.02 52.187 1.39-6.36.39-8.02 2.84-12.9 6.78-10.37-8.18-16.69-10.28-27.762-1.16l-20.796-.11c-2.3-1.68-5.385-4.09-7.766-5.44 4.872-1.65 11.011-.61 17.037-1.46"/><path fill="rgb(254,254,254)" d="M1429.55 2003.67c3.72 2.85 4.23 15.04 4.8 19.84l-17.1-.06-3.82-.48-.56-1.11c2.94-5.62 11.83-13.42 16.68-18.19"/><path fill="rgb(105,105,106)" d="M837.098 1103.5c2.339-.28 3.95-.52 7.123-.5 29.8.18 59.904-.66 89.661.31.526.51 1.052 1.03 1.577 1.54-24.097.61-70.853.18-97.021-.17-.447-.39-.893-.79-1.34-1.18"/><path fill="rgb(254,254,254)" d="M321.324 580.5c6.893-.326 11.519-.066 18.43.37-9.698 2.563-25.637 4.542-35.978 6.086-4.016.934-9.381 1.743-13.541 2.502 10.504-4.812 19.738-7.338 31.089-8.958"/><path fill="rgb(254,254,254)" d="M1041.97 1097.27c5.59-.16 14.8-.93 19.74.75-3.09 3.67-1.38-.67-8.24 4.43-2.19 1.32-2.05 1.22-4.62 1.52-3.31-1.46-7.32-2.79-9.6-5.41l.31-.87-1.28.8z"/><path fill="rgb(105,105,106)" d="M749.852 1103.49c5.237-.74 8.248-1.64 12.439 1.29-4.351.23-9.473 1.14-12.439-1.29"/><path fill="rgb(105,105,106)" d="M808.718 1103.49c4.375-.72 8.063-1.75 11.61 1.22-4.574.33-6.312.48-10.822.08z"/><path fill="rgb(105,105,106)" d="M778.173 1103.51c5.254-.86 8.248-1.27 12.99 1.02-4.964.64-8.505 1.17-12.99-1.02"/><path fill="rgb(105,105,106)" d="M1000.15 1103.49c3.89-.64 7.86-1.65 10.95 1.02-3.54.39-8.41 1.48-10.95-1.02"/></svg>